name rise49.8558peak67.6521fall70.3087.mot
datacolumns 19
datarows 18
range 5.96164100000000 5.98998000000000
endheader
time	ground_force1_vx	ground_force1_vy	ground_force1_vz	ground_force1_px	ground_force1_py	ground_force1_pz	ground_force2_vx	ground_force2_vy	ground_force2_vz	ground_force2_px	ground_force2_py	ground_force2_pz	ground_torque1_x	ground_torque1_y	ground_torque1_z	ground_torque2_x	ground_torque2_y	ground_torque2_z	
5.96164100000000	1.66840300000000	728.88256400000000	47.53862500000000	0.23743500000000	0.00000000000000	0.12281700000000	0.00000000000000	0.00000000000000	0.00000000000000	0.00000000000000	0.00000000000000	0.00000000000000	0.00000000000000	20.68988200000000	0.00000000000000	0.00000000000000	0.00000000000000	0.00000000000000	
5.96330600000000	1.29242600000000	729.14704400000005	47.53548000000000	0.23655000000000	0.00000000000000	0.12283400000000	0.00000000000000	0.00000000000000	0.00000000000000	0.00000000000000	0.00000000000000	0.00000000000000	0.00000000000000	20.70649700000000	0.00000000000000	0.00000000000000	0.00000000000000	0.00000000000000	
5.96497800000000	0.91312000000000	729.40945899999997	47.53405000000000	0.23565900000000	0.00000000000000	0.12285200000000	0.00000000000000	0.00000000000000	0.00000000000000	0.00000000000000	0.00000000000000	0.00000000000000	0.00000000000000	20.72408100000000	0.00000000000000	0.00000000000000	0.00000000000000	0.00000000000000	
5.96664500000000	0.53033200000000	729.66885200000002	47.53428500000000	0.23476000000000	0.00000000000000	0.12287000000000	0.00000000000000	0.00000000000000	0.00000000000000	0.00000000000000	0.00000000000000	0.00000000000000	0.00000000000000	20.74260800000000	0.00000000000000	0.00000000000000	0.00000000000000	0.00000000000000	
5.96830700000000	0.14391500000000	729.92430700000000	47.53614000000000	0.23385200000000	0.00000000000000	0.12288800000000	0.00000000000000	0.00000000000000	0.00000000000000	0.00000000000000	0.00000000000000	0.00000000000000	0.00000000000000	20.76206200000000	0.00000000000000	0.00000000000000	0.00000000000000	0.00000000000000	
5.96997600000000	-0.24627000000000	730.17495499999995	47.53957600000000	0.23293500000000	0.00000000000000	0.12290800000000	0.00000000000000	0.00000000000000	0.00000000000000	0.00000000000000	0.00000000000000	0.00000000000000	0.00000000000000	20.78243200000000	0.00000000000000	0.00000000000000	0.00000000000000	0.00000000000000	
5.97164000000000	-0.64035500000000	730.41997900000001	47.54455800000000	0.23200900000000	0.00000000000000	0.12292700000000	0.00000000000000	0.00000000000000	0.00000000000000	0.00000000000000	0.00000000000000	0.00000000000000	0.00000000000000	20.80371800000000	0.00000000000000	0.00000000000000	0.00000000000000	0.00000000000000	
5.97331100000000	-1.03846800000000	730.65861199999995	47.55106000000000	0.23107300000000	0.00000000000000	0.12294800000000	0.00000000000000	0.00000000000000	0.00000000000000	0.00000000000000	0.00000000000000	0.00000000000000	0.00000000000000	20.82592800000000	0.00000000000000	0.00000000000000	0.00000000000000	0.00000000000000	
5.97498000000000	-1.44072700000000	730.89014699999996	47.55905800000000	0.23012800000000	0.00000000000000	0.12296900000000	0.00000000000000	0.00000000000000	0.00000000000000	0.00000000000000	0.00000000000000	0.00000000000000	0.00000000000000	20.84907600000000	0.00000000000000	0.00000000000000	0.00000000000000	0.00000000000000	
5.97664500000000	-1.84724600000000	731.11393099999998	47.56853500000000	0.22917300000000	0.00000000000000	0.12299100000000	0.00000000000000	0.00000000000000	0.00000000000000	0.00000000000000	0.00000000000000	0.00000000000000	0.00000000000000	20.87318500000000	0.00000000000000	0.00000000000000	0.00000000000000	0.00000000000000	
5.97831300000000	-2.25813300000000	731.32937800000002	47.57948000000000	0.22820900000000	0.00000000000000	0.12301300000000	0.00000000000000	0.00000000000000	0.00000000000000	0.00000000000000	0.00000000000000	0.00000000000000	0.00000000000000	20.89828500000000	0.00000000000000	0.00000000000000	0.00000000000000	0.00000000000000	
5.97998200000000	-2.67348900000000	731.53596100000004	47.59188500000000	0.22723400000000	0.00000000000000	0.12303700000000	0.00000000000000	0.00000000000000	0.00000000000000	0.00000000000000	0.00000000000000	0.00000000000000	0.00000000000000	20.92441300000000	0.00000000000000	0.00000000000000	0.00000000000000	0.00000000000000	
5.98164700000000	-3.09341300000000	731.73322399999995	47.60574700000000	0.22625100000000	0.00000000000000	0.12306100000000	0.00000000000000	0.00000000000000	0.00000000000000	0.00000000000000	0.00000000000000	0.00000000000000	0.00000000000000	20.95161500000000	0.00000000000000	0.00000000000000	0.00000000000000	0.00000000000000	
5.98331300000000	-3.51799600000000	731.92077800000004	47.62107000000000	0.22525800000000	0.00000000000000	0.12308600000000	0.00000000000000	0.00000000000000	0.00000000000000	0.00000000000000	0.00000000000000	0.00000000000000	0.00000000000000	20.97994000000000	0.00000000000000	0.00000000000000	0.00000000000000	0.00000000000000	
5.98497400000000	-3.94732600000000	732.09830699999998	47.63785900000000	0.22425600000000	0.00000000000000	0.12311200000000	0.00000000000000	0.00000000000000	0.00000000000000	0.00000000000000	0.00000000000000	0.00000000000000	0.00000000000000	21.00944600000000	0.00000000000000	0.00000000000000	0.00000000000000	0.00000000000000	
5.98663900000000	-4.38148600000000	732.26557000000003	47.65612700000000	0.22324600000000	0.00000000000000	0.12313900000000	0.00000000000000	0.00000000000000	0.00000000000000	0.00000000000000	0.00000000000000	0.00000000000000	0.00000000000000	21.04019600000000	0.00000000000000	0.00000000000000	0.00000000000000	0.00000000000000	
5.98831400000000	-4.82055500000000	732.42240000000004	47.67588700000000	0.22222700000000	0.00000000000000	0.12316700000000	0.00000000000000	0.00000000000000	0.00000000000000	0.00000000000000	0.00000000000000	0.00000000000000	0.00000000000000	21.07225700000000	0.00000000000000	0.00000000000000	0.00000000000000	0.00000000000000	
5.98998000000000	-5.26461100000000	732.56871100000001	47.69715900000000	0.22120200000000	0.00000000000000	0.12319600000000	0.00000000000000	0.00000000000000	0.00000000000000	0.00000000000000	0.00000000000000	0.00000000000000	0.00000000000000	21.10570300000000	0.00000000000000	0.00000000000000	0.00000000000000	0.00000000000000	
